<?xml version="1.0" encoding="UTF-8" standalone="no"?><!DOCTYPE svg PUBLIC "-//W3C//DTD SVG 1.1//EN" "http://www.w3.org/Graphics/SVG/1.1/DTD/svg11.dtd"><svg width="100%" height="100%" viewBox="0 0 1334 375" version="1.1" xmlns="http://www.w3.org/2000/svg" xmlns:xlink="http://www.w3.org/1999/xlink" xml:space="preserve" xmlns:serif="http://www.serif.com/" style="fill-rule:evenodd;clip-rule:evenodd;stroke-linejoin:round;stroke-miterlimit:2;"><g><path d="M356.909,270.471l0,-233.038l99.5,-0l-0,31.42l-66.115,0l-0,68.406l57.605,0l-0,31.421l-57.605,0l-0,68.406l66.115,0l-0,33.385l-99.5,-0Z" style="fill:#4e2a84;fill-rule:nonzero;"/><path d="M539.216,270.471l-0,-17.02l-0.655,0c-4.364,6.11 -8.782,10.801 -13.255,14.074c-4.474,3.273 -10.747,4.91 -18.82,4.91c-3.928,-0 -7.91,-0.6 -11.947,-1.801c-4.036,-1.2 -7.91,-3.436 -11.619,-6.709c-3.709,-3.055 -6.71,-7.474 -9.001,-13.256c-2.291,-5.782 -3.436,-13.256 -3.436,-22.42c-0,-9.383 0.763,-17.62 2.291,-24.711c1.527,-7.092 4.364,-13.038 8.51,-17.838c3.927,-4.582 9.273,-8.019 16.037,-10.31c6.765,-2.291 15.383,-3.437 25.857,-3.437l3.6,0c1.31,0 2.51,0.109 3.601,0.328c1.091,0.218 2.4,0.327 3.927,0.327c1.528,-0 3.164,0.109 4.91,0.327l-0,-17.347c-0,-5.673 -1.2,-10.364 -3.6,-14.074c-2.401,-3.709 -6.765,-5.564 -13.093,-5.564c-4.364,0 -8.346,1.418 -11.946,4.255c-3.6,2.837 -5.946,6.982 -7.037,12.437l-32.403,0c0.873,-14.837 5.892,-26.838 15.056,-36.003c4.364,-4.364 9.601,-7.8 15.711,-10.31c6.109,-2.509 12.982,-3.764 20.619,-3.764c6.983,0 13.529,1.091 19.639,3.273c6.109,2.182 11.455,5.455 16.037,9.819c4.364,4.364 7.855,9.819 10.474,16.365c2.618,6.547 3.928,14.184 3.928,22.912l-0,115.537l-33.385,-0Zm-0,-71.352c-3.71,-0.654 -6.764,-0.982 -9.165,-0.982c-7.2,0 -13.364,1.691 -18.492,5.073c-5.128,3.383 -7.692,9.547 -7.692,18.493c0,6.328 1.528,11.455 4.583,15.383c3.054,3.928 7.309,5.892 12.764,5.892c5.673,-0 10.092,-1.855 13.256,-5.565c3.164,-3.709 4.746,-8.946 4.746,-15.71l-0,-22.584Z" style="fill:#4e2a84;fill-rule:nonzero;"/><path d="M657.699,151.006c-0.218,-5.673 -2.019,-9.928 -5.401,-12.765c-3.382,-2.836 -7.255,-4.255 -11.619,-4.255c-5.237,0 -9.273,1.691 -12.11,5.073c-2.837,3.383 -4.255,7.256 -4.255,11.62c0,3.054 0.764,6.055 2.291,9c1.528,2.946 5.455,5.619 11.783,8.019l19.638,7.856c12.437,4.8 21.002,11.346 25.693,19.638c4.691,8.291 7.037,17.347 7.037,27.166c0,6.982 -1.254,13.473 -3.764,19.474c-2.509,6 -5.946,11.292 -10.31,15.874c-4.364,4.582 -9.601,8.183 -15.71,10.801c-6.11,2.618 -12.765,3.928 -19.966,3.928c-13.528,-0 -24.874,-4.255 -34.039,-12.765c-4.582,-4.146 -8.292,-9.328 -11.128,-15.547c-2.837,-6.219 -4.364,-13.474 -4.582,-21.765l31.421,-0c0.654,4.582 2.236,8.837 4.745,12.764c2.51,3.928 6.928,5.892 13.256,5.892c4.801,-0 9.11,-1.582 12.928,-4.746c3.819,-3.164 5.728,-7.583 5.728,-13.256c0,-4.582 -1.2,-8.51 -3.6,-11.783c-2.4,-3.273 -6.764,-6.109 -13.092,-8.51l-16.038,-5.891c-10.473,-3.928 -18.711,-9.764 -24.711,-17.511c-6.001,-7.746 -9.001,-17.183 -9.001,-28.311c0,-6.982 1.309,-13.474 3.928,-19.474c2.618,-6.001 6.219,-11.183 10.801,-15.547c4.364,-4.364 9.491,-7.692 15.383,-9.983c5.891,-2.291 12.219,-3.437 18.983,-3.437c6.765,0 13.038,1.201 18.82,3.601c5.782,2.4 10.747,5.782 14.892,10.146c4.146,4.364 7.419,9.546 9.819,15.547c2.401,6 3.601,12.383 3.601,19.147l-31.421,-0Z" style="fill:#4e2a84;fill-rule:nonzero;"/><path d="M698.284,104.529l35.349,0l22.911,103.427l0.654,0l22.584,-103.427l34.367,0l-47.786,194.744c-1.746,7.419 -4.201,13.529 -7.365,18.329c-3.164,4.801 -6.818,8.728 -10.964,11.783c-4.146,3.055 -8.565,5.182 -13.256,6.382c-4.691,1.2 -9.546,1.8 -14.565,1.8l-9.164,0l-0,-31.42l7.528,-0c3.273,-0 6.109,-0.437 8.51,-1.31c2.4,-0.872 4.582,-2.836 6.546,-5.891c1.745,-3.055 3.382,-7.364 4.909,-12.928c1.527,-5.565 3.273,-13.256 5.237,-23.075l-45.495,-158.414Z" style="fill:#4e2a84;fill-rule:nonzero;"/><path d="M851.461,270.471l-0,-201.618l-38.622,0l0,-31.42l110.628,-0l0,31.42l-38.621,0l-0,201.618l-33.385,-0Z" style="fill:#fff;fill-rule:nonzero;"/><path d="M1015.77,104.529l-0,165.942l-33.385,-0l0,-16.038l-0.654,0c-3.492,5.237 -7.692,9.546 -12.601,12.928c-4.91,3.383 -11.183,5.074 -18.82,5.074c-4.146,-0 -8.292,-0.71 -12.438,-2.128c-4.145,-1.418 -7.855,-3.764 -11.128,-7.037c-3.273,-3.273 -5.891,-7.473 -7.855,-12.601c-1.964,-5.128 -2.946,-11.401 -2.946,-18.82l0,-127.32l33.385,0l-0,114.883c-0,6.109 1.418,10.91 4.255,14.401c2.836,3.491 6.873,5.237 12.11,5.237c6.328,-0 10.692,-1.964 13.092,-5.892c2.4,-3.927 3.6,-9.6 3.6,-17.019l0,-111.61l33.385,0Z" style="fill:#fff;fill-rule:nonzero;"/><path d="M1043.26,104.529l0,-50.404l33.385,-0l-0,50.404l20.62,0l-0,26.184l-20.62,0l-0,91.972c-0,3.927 0.382,6.982 1.146,9.164c0.763,2.182 2.018,3.819 3.763,4.91c1.746,1.091 3.874,1.745 6.383,1.964c2.509,0.218 5.619,0.327 9.328,0.327l-0,31.421l-13.747,-0c-7.637,-0 -14.019,-1.2 -19.147,-3.601c-5.128,-2.4 -9.219,-5.455 -12.274,-9.164c-3.054,-3.709 -5.291,-7.91 -6.709,-12.601c-1.419,-4.691 -2.128,-9.219 -2.128,-13.583l0,-100.809l-16.692,0l-0,-26.184l16.692,0Z" style="fill:#fff;fill-rule:nonzero;"/><path d="M1107.08,160.17c-0,-6.764 0.436,-12.983 1.309,-18.656c0.873,-5.673 2.509,-10.692 4.91,-15.056c3.927,-7.2 9.546,-12.983 16.856,-17.347c7.309,-4.364 16.201,-6.546 26.675,-6.546c10.473,0 19.365,2.182 26.675,6.546c7.309,4.364 12.928,10.147 16.856,17.347c2.4,4.364 4.036,9.383 4.909,15.056c0.873,5.673 1.309,11.892 1.309,18.656l0,54.66c0,6.764 -0.436,12.983 -1.309,18.656c-0.873,5.673 -2.509,10.692 -4.909,15.056c-3.928,7.2 -9.547,12.983 -16.856,17.347c-7.31,4.364 -16.202,6.546 -26.675,6.546c-10.474,-0 -19.366,-2.182 -26.675,-6.546c-7.31,-4.364 -12.929,-10.147 -16.856,-17.347c-2.401,-4.364 -4.037,-9.383 -4.91,-15.056c-0.873,-5.673 -1.309,-11.892 -1.309,-18.656l-0,-54.66Zm33.385,59.896c-0,6.328 1.472,11.074 4.418,14.238c2.946,3.164 6.928,4.746 11.947,4.746c5.018,-0 9,-1.582 11.946,-4.746c2.946,-3.164 4.419,-7.91 4.419,-14.238l-0,-65.132c-0,-6.328 -1.473,-11.074 -4.419,-14.238c-2.946,-3.164 -6.928,-4.746 -11.946,-4.746c-5.019,0 -9.001,1.582 -11.947,4.746c-2.946,3.164 -4.418,7.91 -4.418,14.238l-0,65.132Z" style="fill:#fff;fill-rule:nonzero;"/><path d="M1231.13,270.471l-0,-165.942l33.385,0l-0,17.674c6.764,-6.109 13.419,-10.91 19.965,-14.401c6.546,-3.491 14.619,-5.237 24.22,-5.237l0,35.349c-3.273,-1.309 -6.655,-1.964 -10.146,-1.964c-3.491,0 -7.255,0.6 -11.292,1.8c-4.037,1.2 -7.691,3.219 -10.964,6.055c-3.492,2.837 -6.328,6.546 -8.51,11.129c-2.182,4.582 -3.273,10.255 -3.273,17.019l-0,98.518l-33.385,-0Z" style="fill:#fff;fill-rule:nonzero;"/></g><rect x="24.633" y="306.547" width="686.598" height="30.912" style="fill:#4e2a84;"/><path d="M302.53,41.396l-58.733,0c-31.736,0 -55.641,7.625 -71.715,22.875c-16.074,-15.25 -39.979,-22.875 -71.715,-22.875l-58.733,0c-4.327,0 -8.243,1.598 -11.746,4.792c-3.503,3.194 -5.255,7.161 -5.255,11.901l0,193.198c0,4.74 1.752,8.759 5.255,12.056c3.503,3.297 7.419,4.946 11.746,4.946l58.733,-0c10.922,-0 21.793,1.906 32.612,5.718c10.819,3.813 18.598,8.192 23.338,13.138c3.709,4.328 8.758,6.491 15.147,6.491l1.855,0c5.976,0 10.819,-2.163 14.528,-6.491c4.74,-4.74 12.571,-9.067 23.493,-12.983c10.922,-3.915 21.741,-5.873 32.457,-5.873l58.733,-0c4.739,-0 8.758,-1.597 12.055,-4.792c3.298,-3.194 4.946,-7.264 4.946,-12.21l0,-193.198c0,-4.74 -1.648,-8.707 -4.946,-11.901c-3.297,-3.194 -7.316,-4.792 -12.055,-4.792Zm-143.122,215.455c-16.486,-9.273 -36.166,-13.91 -59.041,-13.91l-50.386,0l-0,-176.197l50.386,0c16.898,0 30.963,2.731 42.194,8.192c11.232,5.461 16.847,11.18 16.847,17.156l0,164.759Zm134.776,-13.91l-50.387,0c-22.874,0 -42.555,4.637 -59.041,13.91l-0,-165.377c-0,-5.565 5.616,-11.077 16.847,-16.538c11.231,-5.461 25.296,-8.192 42.194,-8.192l50.387,0l-0,176.197Z" style="fill:#fff;fill-rule:nonzero;"/></svg>